Coordinates
version=1
nRows=24
nColumns=24
inDegrees=yes

Units are S.I. units (second, meters, Newtons, ...)
Angles are in degrees.

endheader
time	pelvis_tilt	pelvis_list	pelvis_rotation	pelvis_tx	pelvis_ty	pelvis_tz	hip_flexion_r	hip_adduction_r	hip_rotation_r	knee_angle_r	ankle_angle_r	subtalar_angle_r	mtp_angle_r	hip_flexion_l	hip_adduction_l	hip_rotation_l	knee_angle_l	ankle_angle_l	subtalar_angle_l	mtp_angle_l	lumbar_extension	lumbar_bending	lumbar_rotation
      5.52000000	      6.17628601	      7.48656604	      9.46999496	      1.59734545	      0.72467020	     -0.23483467	     12.22914740	     -3.25902190	     -4.02145621	      4.21443529	      5.41747158	    -10.31265870	      0.00000000	    -23.70002891	      8.34412104	     12.95664233	    -14.58076426	     17.78329842	     -6.68324608	      0.00000000	    -21.89561583	     -6.20822594	    -17.58269613
      5.53000000	      6.38721220	      6.77424032	      9.40756060	      1.61029987	      0.72490160	     -0.23469214	     12.00345911	     -2.38149598	     -3.73115602	      2.81885317	      3.29996130	    -13.09829896	      0.00000000	    -23.53201247	      7.52781320	     11.29341278	    -16.73244772	     17.03458576	     -5.57719280	      0.00000000	    -21.87255811	     -5.35259239	    -17.26293662
      5.54000000	      6.67236395	      5.95644772	      9.25785508	      1.62324741	      0.72559229	     -0.23445429	     11.74151819	     -1.37772265	     -3.57672461	      1.31321781	      1.24511454	    -15.53411704	      0.00000000	    -23.17565764	      6.60950408	      9.35116540	    -19.21434047	     15.86490043	     -4.61422109	      0.00000000	    -21.91987906	     -4.38995668	    -16.89002928
      5.55000000	      7.04069582	      5.01232180	      9.06097614	      1.63619360	      0.72672193	     -0.23420141	     11.41535556	     -0.23455926	     -3.47107647	     -0.26166553	     -0.38105999	    -17.64873891	      0.00000000	    -22.68902469	      5.54591928	      7.33815745	    -21.93105587	     14.13754865	     -3.95738147	      0.00000000	    -22.04016352	     -3.27196202	    -16.46357235
      5.56000000	      7.43768673	      3.98032469	      8.89442706	      1.64902507	      0.72820165	     -0.23399276	     11.12375192	      0.98427973	     -3.99267511	     -1.95075123	     -1.01334696	    -18.37183178	      0.00000000	    -21.91491601	      4.30123742	      5.13607276	    -25.02767826	     11.94990270	     -3.28727458	      0.00000000	    -22.20474589	     -2.03436681	    -16.14951656
      5.57000000	      7.87470349	      2.92296215	      8.67229945	      1.66177392	      0.72991167	     -0.23375489	     10.75196425	      2.23604460	     -4.41219272	     -3.60461189	     -1.02882131	    -18.76026059	      0.00000000	    -20.99193832	      2.96669156	      2.93504801	    -28.29249088	      9.10006630	     -2.90524531	      0.00000000	    -22.43086141	     -0.77379961	    -15.76029151
      5.58000000	      8.34125820	      1.93943621	      8.42589056	      1.67438555	      0.73178847	     -0.23350014	     10.20459327	      3.42800761	     -4.64045467	     -5.05415590	     -0.68987534	    -18.96004571	      0.00000000	    -19.94791507	      1.63403708	      0.88163832	    -31.65184184	      5.44628067	     -3.02497494	      0.00000000	    -22.73661707	      0.39829762	    -15.39288653
      5.59000000	      8.68799592	      0.99972842	      8.27643255	      1.68682015	      0.73357092	     -0.23331013	      9.83701206	      4.50894973	     -5.67614535	     -6.59867343	      0.88052863	    -17.61541130	      0.00000000	    -18.55402168	      0.21759321	     -0.97978564	    -35.20439736	      1.29561351	     -3.15661179	      0.00000000	    -22.93608877	      1.52593238	    -15.16654175
      5.60000000	      9.09839468	      0.20461238	      8.19805524	      1.69909551	      0.73540070	     -0.23312154	      9.02451517	      5.51721385	     -5.85169434	     -7.54137711	      1.96665526	    -17.49434265	      0.00000000	    -17.13431320	     -1.10635087	     -2.36685546	    -38.71713582	     -3.57597869	     -4.02566900	      0.00000000	    -23.25388093	      2.50473890	    -14.95041495
      5.61000000	      9.45854999	     -0.42794513	      8.21052501	      1.71111830	      0.73712333	     -0.23291972	      8.14821743	      6.35160617	     -6.27245642	     -8.28325798	      3.35221425	    -16.92253617	      0.00000000	    -15.50476590	     -2.35435026	     -3.46263884	    -42.26750857	     -8.75595416	     -5.18504975	      0.00000000	    -23.57250620	      3.29623806	    -14.81867533
      5.62000000	      9.68550962	     -0.97470252	      8.45718809	      1.72288587	      0.73858508	     -0.23284359	      7.17736655	      7.11918605	     -6.44335234	     -8.59231661	      4.52505797	    -16.86335304	      0.00000000	    -13.52323665	     -3.55552395	     -4.00965065	    -45.90966170	    -13.83193029	     -6.63179956	      0.00000000	    -23.74885209	      4.03340244	    -14.89562807
      5.63000000	      9.95841863	     -1.36453610	      8.79450566	      1.73437983	      0.74002648	     -0.23279746	      6.08566338	      7.73101974	     -6.91341067	     -8.76137064	      5.89562783	    -16.37225288	      0.00000000	    -11.50128674	     -4.58655577	     -4.20528450	    -49.43887981	    -18.59305513	     -8.38862428	      0.00000000	    -24.02940659	      4.61283901	    -14.94805663
      5.64000000	     10.05849119	     -1.66482718	      9.31192384	      1.74559511	      0.74117554	     -0.23288424	      5.04346601	      8.26387712	     -7.16387822	     -8.66013833	      6.87726754	    -16.46780965	      0.00000000	     -9.14003868	     -5.44569210	     -3.94504546	    -52.94339425	    -22.45977120	    -10.23628811	      0.00000000	    -24.11875456	      5.11912607	    -15.16834471
      5.65000000	     10.18211213	     -1.85603214	      9.86196116	      1.75660336	      0.74231431	     -0.23305074	      3.91067270	      8.70007898	     -7.49513877	     -8.43220261	      7.88361722	    -16.35850052	      0.00000000	     -6.79842660	     -6.05411160	     -3.41376073	    -56.20615350	    -25.27149812	    -12.19824836	      0.00000000	    -24.25781612	      5.51987652	    -15.31545916
      5.66000000	     10.22284560	     -1.98389449	     10.38785137	      1.76741138	      0.74330813	     -0.23326676	      2.88436250	      9.06549131	     -7.77002038	     -8.22352847	      8.74612163	    -16.39691052	      0.00000000	     -4.37517459	     -6.43345801	     -2.73912195	    -59.22387467	    -26.75328154	    -13.98381937	      0.00000000	    -24.31786708	      5.83661121	    -15.39245777
      5.67000000	     10.28643968	     -2.08158193	     10.83493371	      1.77810423	      0.74430265	     -0.23355268	      1.80056903	      9.41430787	     -7.90337562	     -7.95225281	      9.47056709	    -16.41895979	      0.00000000	     -2.06533382	     -6.59927627	     -1.98154376	    -61.88836439	    -26.79090507	    -15.48319028	      0.00000000	    -24.40961324	      6.12500590	    -15.33329572
      5.68000000	     10.26622789	     -2.03522682	     11.09824301	      1.78873103	      0.74525955	     -0.23384180	      0.81981072	      9.58333057	     -7.86975137	     -7.76730730	     10.27153722	    -16.38226090	      0.00000000	      0.15225063	     -6.39567509	     -1.26498059	    -64.10043454	    -25.70505285	    -16.83699753	      0.00000000	    -24.42778293	      6.20004967	    -15.13078029
      5.69000000	     10.18895638	     -1.93071434	     11.14707701	      1.79934103	      0.74617274	     -0.23407595	     -0.06386105	      9.65150430	     -7.77539064	     -7.68508222	     11.05215042	    -16.10868139	      0.00000000	      2.25484945	     -5.98673437	     -0.69690971	    -65.87633923	    -23.47794860	    -17.73299953	      0.00000000	    -24.39238871	      6.14561445	    -14.72570378
      5.70000000	     10.15803322	     -1.77364547	     11.02279086	      1.80995918	      0.74712334	     -0.23427140	     -0.99936650	      9.65419044	     -7.53600824	     -7.63487921	     11.89208198	    -15.82090293	      0.00000000	      4.13690028	     -5.44015331	     -0.26097594	    -67.20828081	    -20.49685056	    -18.20466908	      0.00000000	    -24.41600377	      6.00246316	    -14.16212079
      5.71000000	     10.05853513	     -1.53015682	     10.67337274	      1.82061791	      0.74802444	     -0.23432846	     -1.89772255	      9.53437372	     -7.01786424	     -7.57969219	     12.64894834	    -15.56932866	      0.00000000	      5.90924204	     -4.73729941	     -0.02891094	    -68.08999614	    -17.17301658	    -18.44459609	      0.00000000	    -24.36725769	      5.67783942	    -13.43257458
      5.72000000	      9.98351610	     -1.25956736	     10.20857361	      1.83125290	      0.74889514	     -0.23431199	     -2.82622320	      9.36642343	     -6.42546040	     -7.52764386	     13.36049420	    -15.31785901	      0.00000000	      7.53743637	     -3.98448385	      0.11391751	    -68.58442958	    -13.71624495	    -18.49695858	      0.00000000	    -24.35656713	      5.29563812	    -12.62667166
      5.73000000	      9.89773442	     -0.97277480	      9.65663788	      1.84183758	      0.74968492	     -0.23421820	     -3.75288428	      9.15631449	     -5.77102280	     -7.45579001	     14.01986059	    -15.06515387	      0.00000000	      9.08102577	     -3.20109704	      0.19931466	    -68.71414568	    -10.38747361	    -18.52347831	      0.00000000	    -24.34734248	      4.86932189	    -11.77536324
      5.74000000	      9.78071408	     -0.64384101	      9.02519657	      1.85240561	      0.75036769	     -0.23400598	     -4.69252817	      8.87700640	     -5.08215030	     -7.30027881	     14.67698459	    -14.83015464	      0.00000000	     10.55413429	     -2.40118287	      0.18756778	    -68.47160382	     -7.41608906	    -18.71155363	      0.00000000	    -24.30141878	      4.34743659	    -10.88552830
      5.75000000	      9.66606810	     -0.34406944	      8.38853932	      1.86286334	      0.75090949	     -0.23375497	     -5.62260913	      8.60887921	     -4.42999302	     -7.12781690	     15.31169142	    -14.62633913	      0.00000000	     11.96671656	     -1.65244640	      0.18883534	    -67.91228398	     -4.71148526	    -18.97018819	      0.00000000	    -24.27349626	      3.85374115	     -9.99124316
